<svg id="Capa_1" data-name="Capa 1" xmlns="http://www.w3.org/2000/svg" viewBox="0 0 500 500"><rect x="85.29" y="275.96" width="2.71" height="22.54"/><rect x="98.13" y="256.82" width="2.71" height="41.69"/><rect x="110.97" y="243.3" width="2.71" height="55.2"/><rect x="123.8" y="231.59" width="2.71" height="66.91"/><rect x="136.65" y="221.46" width="2.71" height="77.05"/><rect x="149.48" y="213.12" width="2.71" height="85.38"/><rect x="162.32" y="205.91" width="2.71" height="92.59"/><rect x="175.16" y="201.18" width="2.71" height="97.32"/><rect x="187.55" y="197.52" width="2.71" height="100.98"/><rect x="200.39" y="192.4" width="2.71" height="106.1"/><rect x="213.23" y="191.03" width="2.71" height="107.47"/><rect x="226.07" y="188.55" width="2.71" height="109.96"/><rect x="238.91" y="188.07" width="2.71" height="110.44"/><rect x="251.75" y="188.07" width="2.71" height="110.44"/><rect x="264.59" y="187.22" width="2.71" height="111.28"/><rect x="277.42" y="190.15" width="2.71" height="108.36"/><rect x="290.26" y="192.4" width="2.71" height="106.1"/><rect x="303.1" y="196.68" width="2.71" height="101.82"/><rect x="315.94" y="202.11" width="2.71" height="96.39"/><rect x="328.78" y="206.82" width="2.71" height="91.69"/><rect x="341.62" y="213.12" width="2.71" height="85.38"/><rect x="354.46" y="221.23" width="2.71" height="77.27"/><rect x="367.3" y="231.85" width="2.71" height="66.65"/><rect x="380.14" y="245.45" width="2.71" height="53.05"/><rect x="392.97" y="258.85" width="2.71" height="39.66"/><rect x="405.81" y="274.31" width="2.71" height="24.19"/><rect x="8.71" y="313.35" width="471.64" height="9.26"/><rect x="8.71" y="387.12" width="471.64" height="9.26"/><path d="M17.36,249.69l5.08-2.1,5.08-2,3-10.94,3.16,4.58,3.18,4.46,10.64-.36L41.33,252s.86,2.46,1.93,4.88,2.35,4.81,2.35,4.81L35.17,259.3l-3.83,3.77L27.5,267l-1.2-11.33-1.46-.91-3.05-2Z"/><path d="M24.6,211l5.21-1.27c1.28-.31,2.6-.6,3.63-.8l1.69-.33,5.06-10.19,2.24,5,2.28,4.87,10.62,1.42-3.87,3.67A26.58,26.58,0,0,0,49,216c-.64.74-1.08,1.23-1.08,1.23l2.73,10.29-9.85-4.08-4.52,3-4.56,3.18,1-11.28-4.07-3.65Z"/><path d="M38.38,172.7l5.4-.34,5.36-.24.94-1.5a25.08,25.08,0,0,1,2.24-3.21l3.47-4.51,1.26,5.27.91,3.55c.23.95.47,1.62.47,1.62l10.21,3.22-1.4.9-2.83,2.16-4.17,3.21.7,10.5-9-5.68-5.07,2.2c-1.32.55-2.46,1.18-3.36,1.64l-1.49.79s.13-.7.34-1.75a29.83,29.83,0,0,1,1-3.77c.8-2.72,1.61-5.43,1.61-5.43l-3.32-4.27Z"/><path d="M58.82,137.49l5.42.63,5.35.72,3.88-4.13A29,29,0,0,1,76.25,132l1.34-1.18s.06,2.67.32,5.4.67,5.49.67,5.49L88,146.58l-9.4,4.68s-.34,2.61-.67,5.22c-.16,1.28-.32,2.57-.43,3.53s-.07,1.67-.07,1.67l-7.93-7.2s-.69.14-1.63.41l-3.52,1-5.19,1.56,2.14-5.27a26.2,26.2,0,0,1,1.63-3.55c.5-.94.82-1.57.82-1.57l-2.49-4.74Z"/><path d="M84.46,106.45,89.72,108l5.19,1.67,9.18-6.64-.44,5.56c-.17,2.74-.35,5.47-.35,5.47l8.47,6.46-10.2,2.86s-.88,2.46-1.58,5-1.21,5.2-1.21,5.2l-6.58-8.46-5.35.49-5.44.6,6.23-9.54-.55-1.62L86,111.6C85.23,109,84.46,106.45,84.46,106.45Z"/><path d="M115.4,79.89l4.92,2.51L125.16,85l10.3-4.8s-.72,2.68-1.45,5.36-1.33,5.27-1.33,5.27l7.22,7.86-10.63.92a10.82,10.82,0,0,0-.76,1.46L127,104.42c-1.07,2.43-2.15,4.85-2.15,4.85l-5-9.45-5.39-.49L109,98.92l7.92-8.18s-.41-2.71-.81-5.43S115.4,79.89,115.4,79.89Z"/><path d="M150.82,59.63s2.17,1.53,4.34,3.2l4.32,3.42,11-2.74s-1.19,2.48-2.39,5l-2.26,4.9,5.71,9-5.27-.58a43.24,43.24,0,0,0-5.31-.36l-6.08,8.71L151.69,80l-5.25-1.49-5.37-1.43,9.3-6.5.18-5.47C150.69,62.39,150.82,59.63,150.82,59.63Z"/><path d="M182.79,47.74s1.92,1.93,3.83,3.87l3.72,3.91L196,54.7a35,35,0,0,1,3.9-.29l1.78-.08-3.15,4.36c-1.52,2.28-2.94,4.67-2.94,4.67l4.26,9.7-10.23-2.21-3.77,3.66L183.26,77a11.7,11.7,0,0,0-1.11,1.19l-1.67-10.51-1.56-.76-3.37-1.41-5-2,5-2.79A30.26,30.26,0,0,1,179,59l1.62-.72s.52-2.64,1-5.27Z"/><path d="M222.82,39.62s1.54,2.27,3.07,4.55l3,4.56,5.68.32,3.88.22a12.59,12.59,0,0,1,1.76.16,15.16,15.16,0,0,0-1.23,1.21l-2.66,2.77-3.74,4L235,67.79l-9.67-4.21-4.39,2.83c-1.09.66-2.13,1.61-2.92,2.19l-1.3,1,.25-10.73-4.45-3L207.88,53l5.42-1.77L217,50a9.57,9.57,0,0,1,1.72-.47s1-2.48,2-5S222.82,39.62,222.82,39.62Z"/><path d="M263.7,39.24l2.17,5.09c1,2.54,2.07,5.08,2.07,5.08l11,2.93-4.54,3.18L270,58.71l.5,10.66-8.72-6.11-1.52.59-3.33,1.64-4.73,2.38,2.2-10.47-3.83-3.81-4-3.81,11.31-1.27,2.86-4.71C262.2,41.39,263.7,39.24,263.7,39.24Z"/><path d="M303.5,46.11s.64,2.61,1.29,5.22c.29,1.29.59,2.59.82,3.56s.34,1.67.34,1.67l10.19,5.13-5,2.22-4.86,2.25-1.43,10.63-3.65-3.9c-1.89-1.82-3.89-3.5-3.89-3.5L287.06,72.1l4-9.85L288,57.71l-3.2-4.56,11.3,1.05,3.63-4.06C301.63,48.13,303.5,46.11,303.5,46.11Z"/><path d="M341.91,60.08l.3,5.41c.1,2.68.19,5.36.19,5.36l1.5,1a27.24,27.24,0,0,1,3.19,2.26l4.47,3.54-5.29,1.19-3.56.86a15.1,15.1,0,0,0-1.63.47l-3.33,10.15a16.07,16.07,0,0,0-.89-1.39L334.74,86l-3.16-4.2-10.48.6,5.74-8.92-2.16-5.1c-1.15-2.46-2.42-4.82-2.42-4.82L324,64a23.66,23.66,0,0,1,3.79,1l5.43,1.67,4.29-3.27Z"/><path d="M377.73,81.58,377,87c-.41,2.66-.83,5.33-.83,5.33l4.07,4c1,1,1.88,2.14,2.59,2.93l1.15,1.36-5.38.16c-2.71.15-5.48.5-5.48.5L368,110.5,363.52,101l-5.21-.76-3.52-.5c-1-.14-1.61-.17-1.61-.17l7.3-7.71s-.13-.68-.34-1.7-.58-2.25-.93-3.55l-1.48-5.2L363,83.68a33.62,33.62,0,0,1,3.48,1.78l1.56.85,4.81-2.4Z"/><path d="M407.34,107.7l-1.7,5.22-1.78,5.14,3.23,4.67,2.2,3.19c.61.87,1,1.47,1,1.47s-.67-.11-1.72-.21l-3.82-.38-5.47-.46-6.65,8.29L390,124.4l-4.93-1.73-5.17-1.31,8.61-6.39-.38-5.35-.48-5.44L397,110.6l5.11-1.49Z"/><path d="M433.11,139.31s-1.32,2.42-2.63,4.85l-2.69,4.76,4.56,10.4L427,157.74l-5.25-1.45-8,7-.68-10.63-1.41-.82c-.85-.49-2.12-1-3.31-1.63L403.53,148l9.58-4.75.62-5.37.54-5.48,8,8.1,5.46-.68C430.47,139.48,433.11,139.31,433.11,139.31Z"/><path d="M452.5,175.16s-1.56,2.12-3.35,4.28-3.51,4.23-3.51,4.23l2.51,11.08-4.91-2.49-4.86-2.37-9.16,5.51.68-5.26c.17-1.34.33-2.68.45-3.68s.08-1.64.08-1.64l-8.6-6.29,10.24-3s.81-2.6,1.61-5.2l1.54-5.32,6.31,9.42,5.47.31Z"/><path d="M465.38,213.33l-4,3.62-4,3.52a12.84,12.84,0,0,1,.11,1.78c0,1.07.09,2.5.13,3.93l.18,5.67-4.33-3.31-4.31-3.19-10,3.87s.9-2.53,1.63-5.08l1.18-5.09-7.21-7.73,10.56-1.17s1.28-2.43,2.55-4.87c.63-1.24,1.26-2.48,1.73-3.42s.74-1.56.74-1.56.33.63.72,1.61l1.51,3.57,2.2,5.24,5.29,1.25Z"/><path d="M471.7,253.56l-4.6,2.89-4.6,2.78s-.15,2.84-.42,5.65c-.47,2.81-.93,5.63-.93,5.63l-3.61-4c-1.72-2-3.8-3.88-3.8-3.88l-10.38,2.07,4.3-9.54-5.58-8.89,10.58.69s1.76-2.15,3.38-4.36l3-4.45.53,1.7a34.13,34.13,0,0,1,1.06,3.76c.58,2.78,1.15,5.55,1.15,5.55l4.95,2.16Z"/><path d="M76.42,298.5l-5.69-2.73a198.45,198.45,0,0,1,76.78-84.37,190,190,0,0,1,206.14,5.7A198.64,198.64,0,0,1,421,295.78l-5.69,2.71c-30-62.94-91-104.37-159-108.12C180.63,186.2,110,228.65,76.42,298.5Z"/><path d="M270.4,167.2c-4-4.23-10.82-7.88-13.8-5.74-2.3,1.64-.26,5.21-3,8.06-2.51,2.62-7.71,3.23-11.09,1.28-3.92-2.27-3-6.62-6.87-9-2.46-1.51-5.45-1.33-8-.74a1.84,1.84,0,0,0-1.42,1.75q-.14,6.58-.26,13.16h49A18.55,18.55,0,0,0,270.4,167.2Z"/><rect x="226.03" y="175.99" width="49.03" height="6.55"/><rect x="226.03" y="183.66" width="15.84" height="2.11" transform="translate(-2.52 3.23) rotate(-0.79)"/><rect x="259.23" y="183.66" width="15.84" height="2.11" transform="translate(14.32 -19.16) rotate(4.22)"/><path d="M327.84,182.6c-2.56-5.25-7.91-10.79-11.4-9.66-2.69.87-1.83,4.89-5.3,6.77-3.19,1.74-8.32.74-10.95-2.14-3.05-3.35-.88-7.23-3.82-10.64-1.89-2.2-4.79-2.93-7.35-3.13a1.83,1.83,0,0,0-1.88,1.24q-2.13,6.22-4.25,12.46l46.73,14.9A18.64,18.64,0,0,0,327.84,182.6Z"/><rect x="280.74" y="184.79" width="49.03" height="6.55" transform="translate(71.58 -83.86) rotate(17.69)"/><rect x="279.63" y="187.18" width="15.84" height="2.11" transform="translate(52.72 -62.7) rotate(13.69)"/><rect x="311.27" y="197.27" width="15.84" height="2.11" transform="translate(90.95 -100.21) rotate(20.75)"/><path d="M213.39,167.94c-5-3-12.51-4.74-14.83-1.89-1.78,2.19,1.13,5.09-.76,8.56-1.73,3.19-6.58,5.15-10.35,4.16-4.38-1.15-4.68-5.59-9-6.85-2.78-.81-5.62.16-7.88,1.38a1.85,1.85,0,0,0-.9,2.06q1.6,6.39,3.22,12.77l47.31-12.93A18.63,18.63,0,0,0,213.39,167.94Z"/><rect x="172.9" y="181.55" width="49.03" height="6.55" transform="translate(-41.73 58.57) rotate(-15.28)"/><rect x="174.97" y="193.39" width="15.84" height="2.11" transform="translate(-50.45 64.8) rotate(-17.7)"/><rect x="207.34" y="185.16" width="15.84" height="2.11" transform="translate(-27.45 37.53) rotate(-9.37)"/><path d="M10.05,373V335.23H26.51q7.13,0,11.17,3.09a10,10,0,0,1,4.06,8.46,9.41,9.41,0,0,1-2.2,6.43A12.32,12.32,0,0,1,33,356.75L42.08,373H30.24L21,353.79h2.38c2.61,0,4.56-.56,5.83-1.69A6.44,6.44,0,0,0,31.15,347q0-3.61-2-5.36T23,339.92H20.33V373Z"/><path d="M66.26,334.46a22.14,22.14,0,0,1,7.52,1.29A18.47,18.47,0,0,1,80,339.38,18.26,18.26,0,0,1,84.73,346a21,21,0,0,1,1.61,8.29,20.49,20.49,0,0,1-1.62,8.23,18.5,18.5,0,0,1-10.94,10.17,22.48,22.48,0,0,1-15,0A18.74,18.74,0,0,1,52.56,369a18.52,18.52,0,0,1-4.76-6.61,20.83,20.83,0,0,1-1.6-8.28,20.55,20.55,0,0,1,1.63-8.22,18.72,18.72,0,0,1,4.73-6.58,17.94,17.94,0,0,1,6.16-3.58A22.32,22.32,0,0,1,66.26,334.46Zm-8.67,19.72q0,7.1,2.31,11.07c1.55,2.66,3.66,4,6.36,4s4.84-1.33,6.38-4S75,358.91,75,354.18s-.77-8.41-2.3-11.06a7.12,7.12,0,0,0-12.77,0Q57.58,347.1,57.59,354.18Z"/><path d="M93,373V335.23h10.59v32.68h13.7V373Z"/><path d="M123.2,373V335.23h10.6v32.68h13.7V373Z"/><path d="M153.46,373V335.23H177.1v5.08h-13v11h12.37v5.08H164.05v11.53h13.76V373Z"/><path d="M185.69,373V335.23h16.46q7.13,0,11.18,3.09a10.06,10.06,0,0,1,4,8.46,9.36,9.36,0,0,1-2.2,6.43,12.32,12.32,0,0,1-6.59,3.54L217.72,373H205.88l-9.21-19.2h2.38c2.61,0,4.56-.56,5.83-1.69a6.44,6.44,0,0,0,1.91-5.09q0-3.61-2-5.36t-6.16-1.73H196V373Z"/><path d="M277,363.78a17.13,17.13,0,0,1-6.77,7.55,20,20,0,0,1-10.38,2.6,22.36,22.36,0,0,1-7.17-1.11,18.39,18.39,0,0,1-5.93-3.24,18.59,18.59,0,0,1-5.3-6.66,19.7,19.7,0,0,1-1.77-8.43A19.38,19.38,0,0,1,245.47,340q5.75-5.62,14.79-5.63a18.86,18.86,0,0,1,9.05,2.07,18.55,18.55,0,0,1,6.68,6.43l-4.8,3.53a14.13,14.13,0,0,0-4.21-5.51,9.32,9.32,0,0,0-5.68-1.83,8.61,8.61,0,0,0-7.56,3.94q-2.7,3.93-2.69,11.14,0,6.65,3.08,10.71a9.66,9.66,0,0,0,8.08,4.06,9.1,9.1,0,0,0,5.76-2,17.14,17.14,0,0,0,4.55-6.06Z"/><path d="M300.51,334.46a22.15,22.15,0,0,1,7.53,1.29A18.55,18.55,0,0,1,319,346a21,21,0,0,1,1.61,8.29,20.49,20.49,0,0,1-1.63,8.23A18.52,18.52,0,0,1,308,372.64a22.48,22.48,0,0,1-15,0,18.48,18.48,0,0,1-10.95-10.23,21,21,0,0,1-1.59-8.28,20.72,20.72,0,0,1,1.62-8.22,18.72,18.72,0,0,1,4.73-6.58,18,18,0,0,1,6.16-3.58A22.36,22.36,0,0,1,300.51,334.46Zm-8.67,19.72q0,7.1,2.32,11.07t6.35,4q4.07,0,6.39-4t2.31-11.07q0-7.1-2.3-11.06a7.12,7.12,0,0,0-6.4-4c-2.71,0-4.83,1.33-6.37,4S291.84,349.45,291.84,354.18Z"/><path d="M322.46,373l13-37.76h10.22L359.49,373H348.25l-4-11.15H331.58L327.83,373Zm10.76-16h9.32l-4.88-13.53Z"/><path d="M366.86,363.39a11.05,11.05,0,0,0,2.9,4.21,5.79,5.79,0,0,0,3.83,1.47,5,5,0,0,0,3.53-1.27,4.16,4.16,0,0,0,1.38-3.2,4.33,4.33,0,0,0-1-2.81,12,12,0,0,0-3.42-2.55l-1.5-.82a45.3,45.3,0,0,1-6.18-3.65,12,12,0,0,1-3-3.71,10,10,0,0,1-.89-4.34,11.72,11.72,0,0,1,3.66-8.91,13.32,13.32,0,0,1,9.53-3.46,13.71,13.71,0,0,1,7.23,1.88,12.81,12.81,0,0,1,4.86,5.41l-4.29,3a9.84,9.84,0,0,0-2.87-4.06,6.5,6.5,0,0,0-4.14-1.36,4.63,4.63,0,0,0-3.32,1.24,4.13,4.13,0,0,0-1.31,3.11,4,4,0,0,0,1.09,2.77,15.71,15.71,0,0,0,4.19,2.77l.71.36a50.39,50.39,0,0,1,7,3.87,11,11,0,0,1,3,3.63,10.05,10.05,0,0,1,.92,4.45,11.65,11.65,0,0,1-3.88,9.07,14.54,14.54,0,0,1-10.1,3.5,15.49,15.49,0,0,1-7.84-2,12.72,12.72,0,0,1-5.18-5.51Z"/><path d="M401.3,373V340.31H391.21v-5.08H422v5.08H411.89V373Z"/><path d="M427,373V335.23h23.64v5.08H437.62v11H450v5.08H437.62v11.53h13.76V373Z"/><path d="M459.26,373V335.23h16.47q7.11,0,11.17,3.09a10.06,10.06,0,0,1,4.05,8.46,9.36,9.36,0,0,1-2.2,6.43,12.29,12.29,0,0,1-6.58,3.54L491.29,373H479.46l-9.21-19.2h2.37c2.62,0,4.56-.56,5.84-1.69a6.44,6.44,0,0,0,1.9-5.09q0-3.61-2-5.36c-1.31-1.15-3.37-1.73-6.15-1.73h-2.69V373Z"/><path d="M180.41,459.82v-4.74l5.45-6.13,2-2.29q9.9-11,9.89-14.94a5.63,5.63,0,0,0-1.57-4.14,5.43,5.43,0,0,0-4.05-1.6,6.16,6.16,0,0,0-4.79,2,7.67,7.67,0,0,0-1.82,5.34v.11h-5.14a12.51,12.51,0,0,1,3.85-9q3.56-3.22,9.57-3.22a13.52,13.52,0,0,1,9.74,3.56A12.17,12.17,0,0,1,207.3,434a13.48,13.48,0,0,1-.54,3.8,12.92,12.92,0,0,1-1.58,3.49,52.52,52.52,0,0,1-4.24,5.38q-2.79,3.21-7.45,8H208v5.08Z"/><path d="M230.63,421.24A12.71,12.71,0,0,1,241.17,426q3.81,4.79,3.81,13.32a27.48,27.48,0,0,1-1.17,8.19,20.69,20.69,0,0,1-3.46,6.66,17.64,17.64,0,0,1-5.88,4.88,15.63,15.63,0,0,1-7.14,1.68,13,13,0,0,1-10.52-4.64q-3.87-4.62-3.86-12.73,0-9.87,4.94-16A15.63,15.63,0,0,1,230.63,421.24Zm3.93,20.14q0-8.16-1.36-11.95T229,425.65c-1.87,0-3.26,1.24-4.19,3.72s-1.38,6.24-1.38,11.25q0,8.22,1.34,12c.9,2.52,2.3,3.79,4.23,3.79s3.26-1.27,4.19-3.79S234.56,446.35,234.56,441.38Z"/><path d="M249.39,459.82v-4.74l5.45-6.13,2-2.29q9.9-11,9.89-14.94a5.63,5.63,0,0,0-1.57-4.14,5.43,5.43,0,0,0-4.05-1.6,6.16,6.16,0,0,0-4.79,2,7.67,7.67,0,0,0-1.82,5.34v.11h-5.14q.31-5.76,3.86-9t9.56-3.22a13.52,13.52,0,0,1,9.74,3.56,12.17,12.17,0,0,1,3.73,9.23,13.48,13.48,0,0,1-.54,3.8,12.92,12.92,0,0,1-1.58,3.49,53.64,53.64,0,0,1-4.23,5.38q-2.81,3.21-7.46,8h14.46v5.08Z"/><path d="M282.21,459.82l12-16.18a5.65,5.65,0,0,0,.65-1.19,3,3,0,0,0,.21-1.07,2.13,2.13,0,0,0-1-1.94,6,6,0,0,0-3.09-.6h-6.41l9.17-12.35H280.72v-4.43h27.51L299.05,435h.34a8.2,8.2,0,0,1,5.38,1.61,5.32,5.32,0,0,1,2,4.35,8.19,8.19,0,0,1-.69,3,17.83,17.83,0,0,1-2,3.51l-8.79,12.37Z"/></svg>